<svg width="74" height="55" viewBox="0 0 74 55" fill="none" xmlns="http://www.w3.org/2000/svg">
<g clip-path="url(#clip0_79_200)">
<path d="M31.0929 32.0375C30.9603 32.0062 30.8228 32.0016 30.6884 32.0238C30.554 32.046 30.4253 32.0947 30.3099 32.167C30.1944 32.2392 30.0944 32.3336 30.0157 32.4448C29.937 32.5559 29.881 32.6816 29.8511 32.8145L27.8578 41.4046C27.7971 41.6722 27.8447 41.953 27.9903 42.1857C28.1359 42.4183 28.3676 42.5839 28.6349 42.6463C28.7132 42.6592 28.7931 42.6592 28.8714 42.6463C29.1102 42.6411 29.34 42.5546 29.5228 42.401C29.7056 42.2473 29.8304 42.0359 29.8765 41.8016L31.8699 33.203C31.9091 32.9468 31.8512 32.6853 31.7074 32.4696C31.5636 32.2539 31.3444 32.0998 31.0929 32.0375Z" fill="black"/>
<path d="M25.079 28.9038C24.8114 28.8431 24.5305 28.8907 24.2979 29.0363C24.0653 29.1819 23.8997 29.4136 23.8373 29.6809L21.0753 41.5735C21.0146 41.8412 21.0623 42.1219 21.2079 42.3546C21.3535 42.5872 21.5852 42.7528 21.8524 42.8151C21.931 42.8235 22.0103 42.8235 22.0889 42.8151C22.3286 42.8132 22.56 42.7278 22.7435 42.5736C22.9269 42.4195 23.0508 42.2062 23.094 41.9705L25.8476 30.0779C25.8935 29.8211 25.8395 29.5564 25.6966 29.3381C25.5537 29.1198 25.3328 28.9644 25.079 28.9038Z" fill="black"/>
<path d="M18.1613 29.0389C17.8937 28.9782 17.6129 29.0258 17.3803 29.1714C17.1477 29.317 16.9821 29.5488 16.9197 29.8161L14.9264 38.4061C14.8951 38.5387 14.8905 38.6762 14.9128 38.8105C14.935 38.9449 14.9836 39.0736 15.0559 39.1891C15.1281 39.3045 15.2226 39.4045 15.3337 39.4832C15.4449 39.5619 15.5705 39.6179 15.7034 39.6477C15.7789 39.66 15.8559 39.66 15.9314 39.6477C16.1716 39.6445 16.4034 39.5588 16.5879 39.4051C16.7725 39.2513 16.8986 39.0387 16.9451 38.8031L18.9046 30.2806C18.9665 30.0176 18.9235 29.7409 18.7847 29.5091C18.6459 29.2773 18.4223 29.1086 18.1613 29.0389Z" fill="black"/>
<path d="M71.543 26.3445C71.0194 23.9894 69.6602 21.9039 67.7168 20.4743C66.8105 19.7898 65.7664 19.3099 64.6567 19.0678C63.5471 18.8258 62.3982 18.8272 61.2891 19.0721L60.6471 19.2241L60.0727 16.7662C60.0635 16.7133 60.0465 16.6621 60.0221 16.6142C60.0078 16.4946 59.9851 16.376 59.9545 16.2594C59.6488 14.9406 58.8323 13.797 57.6842 13.0796C56.536 12.3622 55.1501 12.1297 53.8308 12.4332C53.3136 12.5541 52.8179 12.7535 52.3611 13.0245C51.5472 11.7587 50.362 10.7755 48.9677 10.2096C47.5733 9.64357 46.0381 9.52248 44.5723 9.8628C43.1065 10.2031 41.7817 10.9883 40.7794 12.1107C39.7772 13.2331 39.1464 14.6379 38.9734 16.1328C38.4444 16.0892 37.9119 16.1263 37.3939 16.2426L37.0307 16.3524L36.6676 16.2426C36.1497 16.1263 35.6171 16.0892 35.0881 16.1328C34.9131 14.6403 34.2816 13.2382 33.2799 12.118C32.2782 10.9978 30.9551 10.2142 29.4914 9.87415C28.0276 9.53409 26.4946 9.65416 25.1017 10.218C23.7088 10.7819 22.5238 11.762 21.7088 13.0245C21.2482 12.7549 20.75 12.5557 20.2306 12.4332C19.5777 12.277 18.9002 12.2521 18.2375 12.3599C17.5748 12.4678 16.9402 12.7063 16.3704 13.0615C15.8007 13.4167 15.3072 13.8815 14.9186 14.4291C14.53 14.9766 14.2541 15.596 14.1069 16.251C14.1069 16.3777 14.0563 16.496 14.0394 16.6142C14.0151 16.6621 13.998 16.7133 13.9888 16.7662L13.4144 19.2241L12.7724 19.0721C11.6634 18.8272 10.5144 18.8258 9.40467 19.0678C8.29498 19.3099 7.25101 19.7898 6.34467 20.4743C4.40134 21.9039 3.04196 23.9894 2.51839 26.3445L0.955813 33.1017C-0.218248 38.1696 2.48462 43.1108 6.9697 44.1497L7.36666 44.2426L6.63182 45.7883C6.49211 46.0826 6.41963 46.4043 6.41963 46.7301C6.41963 47.0559 6.49211 47.3776 6.63182 47.6719C6.8059 48.0193 7.0556 48.3232 7.36254 48.5615C7.66948 48.7997 8.02586 48.9662 8.40556 49.0487L31.1604 54.3277C31.3682 54.3752 31.5808 54.3979 31.7939 54.3953C32.3586 54.3997 32.9085 54.2154 33.3565 53.8716C33.6159 53.6723 33.8268 53.4167 33.9731 53.1241C34.1194 52.8314 34.1973 52.5095 34.2012 52.1823V49.2937L36.9716 37.3334L39.7421 49.2937V52.1823C39.7459 52.5095 39.8239 52.8314 39.9702 53.1241C40.1165 53.4167 40.3273 53.6723 40.5867 53.8716C41.0414 54.215 41.5965 54.399 42.1662 54.3953C42.3735 54.3937 42.5801 54.371 42.7828 54.3277L65.5376 49.0487C65.9173 48.9662 66.2738 48.7997 66.5807 48.5615C66.8877 48.3232 67.1374 48.0193 67.3114 47.6719C67.4529 47.3781 67.5263 47.0562 67.5263 46.7301C67.5263 46.404 67.4529 46.0821 67.3114 45.7883L66.5765 44.2426L66.9735 44.1497C71.4586 43.1108 74.1615 38.1527 72.9874 33.1017L71.543 26.3445ZM65.5545 46.6161C65.5545 46.6161 65.5545 46.6161 65.5545 46.7174C65.5139 46.7835 65.4599 46.8403 65.3958 46.884C65.3318 46.9276 65.2592 46.9573 65.1829 46.9709L42.3774 52.2499C42.302 52.2691 42.2236 52.273 42.1467 52.2614C42.0699 52.2498 41.996 52.2229 41.9297 52.1823C41.879 52.1823 41.879 52.1148 41.879 52.0979V49.9355L45.4603 49.0909C45.7097 49.0125 45.9205 48.843 46.0505 48.6161C46.1804 48.3892 46.2199 48.1216 46.1613 47.8668C46.1027 47.612 45.9502 47.3887 45.7341 47.2414C45.5181 47.0941 45.2544 47.0337 44.9958 47.0722L44.5904 47.1736L43.3656 47.4523L41.6087 47.8577L37.2503 29.0896L51.9303 25.711C52.1982 25.6468 52.43 25.4795 52.5754 25.2455C52.7209 25.0115 52.7684 24.7297 52.7074 24.461C52.6777 24.3283 52.6216 24.2029 52.5428 24.0921C52.4639 23.9813 52.3637 23.8873 52.2481 23.8157C52.1325 23.7442 52.0037 23.6963 51.8694 23.6752C51.735 23.654 51.5979 23.6598 51.4658 23.6924L36.7858 27.071L35.9412 23.3883L37.5291 23.0251C37.7638 23.7821 38.235 24.4441 38.8734 24.9138C39.5119 25.3835 40.284 25.6363 41.0766 25.6351C41.3608 25.6371 41.6443 25.6059 41.9212 25.5422C42.3986 25.428 42.8484 25.2198 43.2443 24.9298C43.6402 24.6397 43.9744 24.2736 44.2271 23.8529C44.4201 23.5503 44.5654 23.2198 44.6579 22.873C44.7593 22.9575 44.8775 23.0419 44.9873 23.118C45.4766 23.4219 46.0414 23.5823 46.6173 23.5809C47.1933 23.5794 47.7573 23.4162 48.2451 23.1098C48.7328 22.8034 49.1247 22.3663 49.3761 21.848C49.6274 21.3298 49.7281 20.7513 49.6667 20.1786L58.2905 18.1768L59.1352 21.851L55.5539 22.6956C55.3037 22.7519 55.0832 22.8987 54.9347 23.1078C54.7863 23.3168 54.7203 23.5735 54.7497 23.8282C54.779 24.083 54.9016 24.3178 55.0937 24.4877C55.2858 24.6575 55.534 24.7503 55.7904 24.7482C55.8689 24.7593 55.9484 24.7593 56.0268 24.7482L59.5998 23.9035L63.9581 42.68L54.3798 44.9268L49.92 45.9657C49.6528 46.0281 49.4211 46.1937 49.2755 46.4263C49.1299 46.659 49.0823 46.9397 49.143 47.2073C49.2054 47.4746 49.371 47.7063 49.6036 47.8519C49.8362 47.9975 50.117 48.0451 50.3846 47.9844L64.6 44.6819L65.5545 46.6161ZM30.7887 47.4607L29.4627 47.1567L29.0657 47.0553C28.797 46.9944 28.5152 47.0418 28.2812 47.1872C28.0472 47.3327 27.8799 47.5645 27.8157 47.8324C27.7549 48.1 27.8026 48.3808 27.9482 48.6135C28.0938 48.8461 28.3254 49.0117 28.5927 49.074L32.174 49.9187V52.081C32.174 52.081 32.174 52.1232 32.1234 52.1654C32.057 52.206 31.9832 52.2329 31.9063 52.2445C31.8294 52.2561 31.751 52.2522 31.6757 52.233L8.88707 47.0046C8.81075 46.991 8.73811 46.9614 8.67405 46.9178C8.61 46.8741 8.55592 46.8173 8.51537 46.7513C8.51537 46.6921 8.51537 46.6668 8.51537 46.6499L9.44457 44.6903L23.6515 47.9929C23.9191 48.0536 24.1999 48.006 24.4325 47.8604C24.6652 47.7148 24.8307 47.4831 24.8931 47.2158C24.9538 46.9482 24.9062 46.6674 24.7606 46.4347C24.615 46.2021 24.3834 46.0366 24.1161 45.9742L19.6563 44.9352L10.1033 42.7223L14.4617 23.9458L18.043 24.7904C18.1185 24.8027 18.1956 24.8027 18.2711 24.7904C18.5275 24.7925 18.7757 24.6997 18.9678 24.5299C19.1599 24.3601 19.2824 24.1252 19.3118 23.8704C19.3411 23.6157 19.2752 23.3591 19.1268 23.15C18.9783 22.941 18.7578 22.7942 18.5076 22.7379L14.9263 21.8933L15.771 18.219L24.3948 20.2124C24.3255 20.8208 24.44 21.436 24.7234 21.9787C25.0068 22.5215 25.4463 22.9669 25.9851 23.2577C26.524 23.5485 27.1375 23.6713 27.7468 23.6103C28.3561 23.5493 28.9331 23.3072 29.4036 22.9153C29.5829 23.5603 29.9322 24.1453 30.4152 24.6089C30.8981 25.0726 31.4969 25.3978 32.1487 25.5506C32.4255 25.6155 32.7091 25.6467 32.9934 25.6435C33.4348 25.6426 33.8724 25.5625 34.2856 25.407L34.5306 26.4375L22.5957 23.6755C22.4636 23.6429 22.3265 23.6371 22.1921 23.6583C22.0578 23.6795 21.929 23.7272 21.8133 23.7988C21.6977 23.8704 21.5975 23.9644 21.5186 24.0752C21.4398 24.186 21.3839 24.3114 21.3541 24.4441C21.2932 24.7128 21.3405 24.9947 21.486 25.2287C21.6314 25.4626 21.8632 25.6299 22.1311 25.6942L35.0458 28.6842L35.9749 32.6878L32.4612 47.8915L30.7887 47.4607ZM2.97453 33.4903L4.53711 26.7331C4.94401 24.8627 6.01911 23.2049 7.56092 22.0706C8.58016 21.3053 9.81706 20.8851 11.0916 20.8712C11.5008 20.8702 11.9088 20.9155 12.3078 21.0063L12.9498 21.1584L12.4768 23.194L12.2149 23.1349C9.46983 22.4929 6.68253 25.2043 6.0237 28.0592L4.90036 32.9244C4.23308 35.7708 5.55074 39.4282 8.27895 40.0617L8.54074 40.1207L8.06779 42.1648L7.42585 42.0128C4.06415 41.3117 2.06231 37.477 2.97453 33.5409V33.4903ZM12.0038 25.2465L9.02224 38.1358L8.76035 38.0767C7.38358 37.7642 6.45452 35.4076 6.91908 33.4227L8.04242 28.5575C8.50698 26.5726 10.3737 24.8664 11.7504 25.1789L12.0038 25.2465ZM17.4772 14.7813C18.1606 14.3588 18.9828 14.2223 19.7661 14.4012C20.3481 14.5253 20.8801 14.8193 21.2949 15.2459C21.4152 15.3658 21.5632 15.4543 21.7257 15.5038C21.8882 15.5532 22.0603 15.5621 22.227 15.5296C22.3937 15.4971 22.55 15.4242 22.682 15.3173C22.814 15.2104 22.9177 15.0728 22.9842 14.9165C23.4518 13.7646 24.3152 12.8175 25.419 12.2455C26.5227 11.6736 27.7944 11.5142 29.0051 11.7963C30.2158 12.0784 31.2861 12.7833 32.0234 13.7841C32.7608 14.785 33.1166 16.0162 33.0271 17.2562C33.0143 17.4295 33.0455 17.6032 33.1178 17.7612C33.1902 17.9192 33.3013 18.0564 33.441 18.1599C33.5618 18.2463 33.6993 18.3067 33.8447 18.3373C33.9901 18.3678 34.1402 18.3678 34.2856 18.3373C34.2659 18.3702 34.2433 18.4013 34.2181 18.4302C33.5022 19.5814 33.2714 20.9693 33.5761 22.2902C33.5761 22.4169 33.6437 22.5436 33.6775 22.6534C33.7113 22.7632 33.6775 22.7548 33.6775 22.797L33.7957 23.2869C33.5202 23.45 33.2027 23.5283 32.8829 23.5121C32.5632 23.4959 32.2553 23.3859 31.9977 23.1958C31.74 23.0057 31.544 22.744 31.4342 22.4433C31.3244 22.1425 31.3056 21.8161 31.3801 21.5047C31.4163 21.3487 31.473 21.1981 31.5489 21.0571C31.6317 20.9178 31.6795 20.7605 31.6883 20.5987C31.6972 20.4369 31.6667 20.2754 31.5997 20.1279C31.535 19.9813 31.4373 19.8517 31.3142 19.7491C31.1911 19.6465 31.0459 19.5738 30.8901 19.5367L29.809 19.2833H29.5725C29.3329 19.2852 29.1014 19.3707 28.918 19.5248C28.7345 19.679 28.6105 19.8922 28.5673 20.1279C28.5658 20.1561 28.5658 20.1843 28.5673 20.2124C28.5633 20.2433 28.5633 20.2745 28.5673 20.3053V20.3898C28.5673 20.3898 28.5673 20.4405 28.5673 20.4658C28.5641 20.4939 28.5641 20.5222 28.5673 20.5503C28.5634 20.5754 28.5634 20.6011 28.5673 20.6263V20.7023C28.5645 20.7304 28.5645 20.7587 28.5673 20.7868C28.5377 20.9142 28.4828 21.0344 28.406 21.1403C28.3291 21.2462 28.2317 21.3357 28.1197 21.4034C28.0091 21.4732 27.8856 21.5203 27.7566 21.5421C27.6275 21.5638 27.4954 21.5598 27.368 21.5301C27.1103 21.4708 26.886 21.3132 26.7429 21.0908C26.604 20.8634 26.5585 20.5909 26.6162 20.3306C26.6211 20.2773 26.6211 20.2235 26.6162 20.1702C26.6202 20.1195 26.6202 20.0687 26.6162 20.0181C26.6202 19.9647 26.6202 19.9111 26.6162 19.8576C26.625 19.7932 26.625 19.7278 26.6162 19.6634C26.6462 19.5314 26.6499 19.3948 26.6271 19.2614C26.6042 19.128 26.5553 19.0003 26.4831 18.8858C26.411 18.7713 26.317 18.6721 26.2065 18.5939C26.096 18.5157 25.9711 18.4601 25.8391 18.4302L16.2777 16.2087C16.5252 15.6366 16.9443 15.1555 17.4772 14.832V14.7813ZM39.6154 18.3288C39.7768 18.3911 39.9513 18.4113 40.1227 18.3877C40.294 18.3641 40.4567 18.2973 40.5952 18.1937C40.7346 18.0895 40.8461 17.9525 40.9198 17.7948C40.9935 17.6372 41.0271 17.4637 41.0175 17.2899C40.9342 16.054 41.2931 14.8288 42.03 13.8332C42.767 12.8376 43.8339 12.1365 45.0402 11.8552C46.2466 11.574 47.5136 11.7308 48.6149 12.2978C49.7162 12.8648 50.5801 13.8049 51.0519 14.9502C51.1184 15.1065 51.2221 15.2442 51.3542 15.3511C51.4862 15.4579 51.6423 15.5308 51.8091 15.5634C51.9758 15.5959 52.148 15.587 52.3105 15.5375C52.473 15.4881 52.6209 15.3995 52.7412 15.2797C53.0882 14.9108 53.5219 14.6345 54.0028 14.4757C54.4836 14.317 54.9965 14.2809 55.4949 14.3707C55.9933 14.4604 56.4615 14.6733 56.8567 14.9898C57.252 15.3064 57.5619 15.7167 57.7584 16.1834L48.1886 18.4049C47.9241 18.4748 47.6962 18.6432 47.5518 18.8756C47.4073 19.108 47.3571 19.3868 47.4115 19.6549C47.4066 19.7111 47.4066 19.7677 47.4115 19.8239C47.4075 19.8773 47.4075 19.9309 47.4115 19.9844C47.4115 20.035 47.4115 20.0857 47.4115 20.1364C47.4076 20.1926 47.4076 20.2491 47.4115 20.3053C47.4742 20.5629 47.432 20.8349 47.2942 21.0614C47.1564 21.2879 46.9342 21.4504 46.6766 21.5132C46.419 21.5759 46.1471 21.5337 45.9205 21.3959C45.694 21.2581 45.5315 21.0359 45.4687 20.7783C45.4687 20.7783 45.4687 20.7023 45.4687 20.6685V20.5925C45.4719 20.5644 45.4719 20.5361 45.4687 20.508C45.4727 20.4828 45.4727 20.4572 45.4687 20.432C45.4687 20.432 45.4687 20.3729 45.4687 20.356V20.2715C45.4744 20.2436 45.4744 20.2149 45.4687 20.1871V20.0942C45.4389 19.9613 45.383 19.8356 45.3043 19.7244C45.2255 19.6133 45.1255 19.5189 45.01 19.4466C44.8946 19.3743 44.766 19.3257 44.6316 19.3034C44.4972 19.2812 44.3597 19.2858 44.2271 19.317L43.1544 19.5705C42.997 19.6065 42.8502 19.6787 42.7256 19.7813C42.601 19.8839 42.502 20.0141 42.4365 20.1617C42.3694 20.3092 42.339 20.4707 42.3478 20.6325C42.3566 20.7943 42.4045 20.9515 42.4872 21.0908C42.5631 21.2319 42.6199 21.3824 42.6561 21.5385C42.7547 21.9619 42.681 22.4071 42.4513 22.7762C42.2216 23.1452 41.8548 23.408 41.4314 23.5065C41.008 23.6051 40.5628 23.5314 40.1937 23.3018C39.8246 23.0721 39.5619 22.7052 39.4633 22.2818C39.4424 22.122 39.4424 21.9601 39.4633 21.8003C39.4726 21.6594 39.4528 21.5181 39.4051 21.3852C39.3575 21.2523 39.2831 21.1305 39.1865 21.0276C39.0898 20.9246 38.9731 20.8426 38.8434 20.7867C38.7138 20.7307 38.5741 20.702 38.4328 20.7023C38.3542 20.694 38.2749 20.694 38.1963 20.7023L35.5357 21.3189C35.5054 20.8133 35.6023 20.3081 35.8175 19.8496C36.0326 19.391 36.3593 18.9937 36.7675 18.6938C37.1757 18.394 37.6525 18.2012 38.1544 18.133C38.6563 18.0648 39.1673 18.1234 39.6407 18.3035L39.6154 18.3288ZM26.5571 19.9759C26.5571 19.9759 26.5571 19.9759 26.5571 20.0266V19.9759ZM47.5973 20.0688V20.0181V20.0688ZM47.5551 19.9083V19.8576C47.5551 19.8576 47.4875 19.9168 47.4959 19.9759L47.5551 19.9083ZM62.1168 25.2719L62.3786 25.2127C63.7469 24.8918 65.6136 26.5979 66.0782 28.5913L67.21 33.4565C67.4242 34.4716 67.3301 35.5275 66.9397 36.4888C66.8202 36.863 66.6153 37.2043 66.3412 37.4858C66.0671 37.7673 65.7312 37.9811 65.3602 38.1105L65.1068 38.1696L62.1168 25.2719ZM65.5714 40.1799L65.8333 40.1207C66.5273 39.9227 67.1634 39.5608 67.6882 39.0654C68.213 38.57 68.611 37.9557 68.8486 37.2743C69.4052 35.9151 69.5377 34.4194 69.2287 32.9835L68.0969 28.1183C67.4381 25.2719 64.6508 22.5605 61.9057 23.194L61.6438 23.2531L61.1708 21.2175L61.8128 21.0655C62.6352 20.8886 63.4862 20.8922 64.3071 21.0759C65.1281 21.2597 65.8995 21.6192 66.5681 22.1297C68.1077 23.2662 69.1821 24.923 69.5919 26.7922L71.1461 33.5494C72.0583 37.4855 70.0564 41.3202 66.6863 42.1057L66.0445 42.2577L65.5714 40.1799Z" fill="black"/>
<path d="M44.244 32.8145C44.2229 32.6728 44.1727 32.537 44.0966 32.4156C44.0204 32.2942 43.9201 32.1899 43.8017 32.1092C43.6833 32.0285 43.5494 31.9731 43.4086 31.9466C43.2678 31.9201 43.123 31.9231 42.9834 31.9552C42.8438 31.9873 42.7123 32.048 42.5973 32.1334C42.4822 32.2187 42.3861 32.327 42.3149 32.4513C42.2437 32.5757 42.1989 32.7134 42.1835 32.8558C42.1681 32.9983 42.1823 33.1424 42.2253 33.2791L44.2186 41.8776C44.2651 42.1133 44.3912 42.3258 44.5757 42.4796C44.7602 42.6334 44.9921 42.719 45.2323 42.7222C45.3078 42.7345 45.3847 42.7345 45.4602 42.7222C45.7275 42.6599 45.9593 42.4943 46.1049 42.2617C46.2505 42.029 46.2981 41.7483 46.2374 41.4806L44.244 32.8145Z" fill="black"/>
<path d="M51.0012 42.0382C51.0444 42.2739 51.1684 42.4871 51.3519 42.6413C51.5353 42.7955 51.7667 42.8809 52.0063 42.8828C52.0849 42.8915 52.1642 42.8915 52.2428 42.8828C52.5101 42.8205 52.7418 42.6549 52.8874 42.4222C53.033 42.1896 53.0806 41.9088 53.0199 41.6412L50.2664 29.7486C50.2021 29.4806 50.0348 29.2489 49.8008 29.1034C49.5668 28.958 49.285 28.9106 49.0163 28.9715C48.8836 29.0013 48.7582 29.0572 48.6474 29.136C48.5366 29.2149 48.4426 29.3151 48.371 29.4308C48.2995 29.5464 48.2517 29.6751 48.2305 29.8095C48.2093 29.9438 48.2151 30.081 48.2476 30.2131L51.0012 42.0382Z" fill="black"/>
<path d="M58.1301 39.6816C58.2085 39.6927 58.2881 39.6927 58.3666 39.6816C58.4993 39.6519 58.6247 39.5959 58.7355 39.517C58.8463 39.4382 58.9402 39.338 59.0118 39.2224C59.0834 39.1067 59.1313 38.9779 59.1525 38.8436C59.1737 38.7093 59.1678 38.572 59.1352 38.44L57.1419 29.8499C57.0635 29.6005 56.8939 29.3897 56.667 29.2598C56.4401 29.1299 56.1725 29.0903 55.9177 29.1489C55.6629 29.2075 55.4395 29.3601 55.2923 29.5762C55.145 29.7922 55.0846 30.0559 55.1232 30.3145L57.1165 38.913C57.179 39.1339 57.3117 39.3284 57.4946 39.4671C57.6775 39.6058 57.9005 39.6811 58.1301 39.6816Z" fill="black"/>
<path d="M34.9952 4.44287C34.9952 5.45645 35.485 6.06459 36.279 6.07303C37.0729 6.08148 37.5882 5.46493 37.5967 4.47669C37.6051 3.48845 37.5967 2.61001 37.5967 1.67245C37.6486 1.31266 37.5721 0.946059 37.3806 0.637107C37.189 0.328155 36.8947 0.0966243 36.5493 -0.0168457H35.8989C35.5747 0.158081 35.3122 0.428733 35.1475 0.758257C34.9827 1.08778 34.9237 1.46013 34.9783 1.82448C35.029 2.70291 34.953 3.57288 34.9952 4.44287Z" fill="black"/>
<path d="M41.955 8.48035C42.0986 8.40433 42.5294 8.31986 42.6983 8.05802C43.4247 6.93464 44.1088 5.77748 44.7338 4.58653C44.8516 4.31251 44.8624 4.00423 44.7638 3.7227C44.6653 3.44118 44.4647 3.20687 44.2017 3.06612C43.9564 2.89686 43.6554 2.82874 43.3612 2.87594C43.0669 2.92315 42.8022 3.08207 42.6222 3.31956C41.8681 4.45278 41.1855 5.63195 40.5782 6.85018C40.2066 7.59347 40.8654 8.44656 41.955 8.48035Z" fill="black"/>
<path d="M28.3901 3.08304C28.2401 3.17287 28.1098 3.29203 28.0069 3.43334C27.9041 3.57466 27.8308 3.73523 27.7913 3.90552C27.7519 4.07582 27.7472 4.25231 27.7775 4.42446C27.8078 4.5966 27.8725 4.76087 27.9677 4.90746C28.5252 5.91259 29.0912 6.90927 29.7247 7.86373C30.0053 8.16564 30.3333 8.41959 30.6959 8.61547C30.9369 8.61326 31.1732 8.54902 31.382 8.4289C31.5909 8.30879 31.7653 8.13684 31.8884 7.92971C32.0115 7.72259 32.0791 7.48725 32.0848 7.24638C32.0904 7.0055 32.034 6.76721 31.9207 6.55453C31.3886 5.54095 30.7973 4.55275 30.1807 3.58141C30.0998 3.42718 29.9883 3.29116 29.8528 3.18171C29.7174 3.07227 29.561 2.99167 29.3932 2.94498C29.2254 2.89829 29.0499 2.88649 28.8774 2.91023C28.7048 2.93397 28.539 2.99277 28.3901 3.08304Z" fill="black"/>
</g>
<defs>
<clipPath id="clip0_79_200">
<rect width="72.6989" height="54.37" fill="white" transform="translate(0.685547)"/>
</clipPath>
</defs>
</svg>
