<svg width="82" height="82" viewBox="0 0 82 82" fill="none" xmlns="http://www.w3.org/2000/svg">
<circle cx="41" cy="41" r="41" fill="white"/>
<path d="M17.565 19.0653C20.3713 16.6785 24.0071 15.4972 27.6803 15.779C31.8114 16.1109 35.5474 18.2416 38.8421 20.6454C42.1368 23.0492 45.1963 25.7977 48.8356 27.7014C53.0381 29.8993 57.8121 30.8785 62.0356 33.0259C66.2591 35.1734 70.0917 39.0817 69.8312 43.6498C69.6589 46.6588 67.7299 49.3525 65.3345 51.3277C62.9391 53.3029 60.1319 54.7107 57.4759 56.3371C52.22 59.552 47.5875 63.6891 43.801 68.5495C41.5191 71.4912 39.0564 75.0003 35.2406 75.3533C32.2316 75.6348 29.3571 73.6723 27.8148 71.2054C26.2725 68.7386 25.7136 65.7926 25.2723 62.9307C24.8311 60.0689 24.3562 57.1397 22.9063 54.5972C21.1749 51.5756 18.1995 49.403 16.0521 46.6377C12.4043 41.9394 12.4253 36.8208 12.543 31.2525C12.6439 26.7894 14.0013 22.1625 17.565 19.0653Z" fill="#FAD018"/>
<path d="M55.3915 47.533H25.1883C24.9884 47.5341 24.797 47.6143 24.6561 47.756C24.5151 47.8977 24.436 48.0895 24.436 48.2894V70.4365C24.436 70.636 24.5153 70.8273 24.6563 70.9684C24.7974 71.1094 24.9888 71.1887 25.1883 71.1887H55.3915C55.591 71.1887 55.7823 71.1094 55.9234 70.9684C56.0645 70.8273 56.1437 70.636 56.1437 70.4365V48.2894C56.1437 48.0895 56.0646 47.8977 55.9237 47.756C55.7827 47.6143 55.5914 47.5341 55.3915 47.533ZM41.5485 49.0416V69.68H39.027V49.0416H41.5485ZM25.9447 49.0416H37.5225V69.68H25.9447V49.0416ZM54.635 69.68H43.0572V49.0416H54.635V69.68Z" fill="black"/>
<path d="M40.2877 32.9377C40.3881 32.9377 40.4875 32.9177 40.5801 32.8789C40.6728 32.8401 40.7567 32.7833 40.8271 32.7117C40.8975 32.6401 40.953 32.5552 40.9903 32.462C41.0275 32.3688 41.0459 32.2691 41.0442 32.1687V31.1601C41.03 30.9697 40.9443 30.7918 40.8044 30.662C40.6645 30.5321 40.4807 30.46 40.2898 30.46C40.099 30.46 39.9152 30.5321 39.7753 30.662C39.6354 30.7918 39.5497 30.9697 39.5355 31.1601V32.1687C39.5338 32.2687 39.552 32.3681 39.589 32.461C39.626 32.554 39.6811 32.6387 39.7511 32.7102C39.821 32.7817 39.9045 32.8387 39.9966 32.8777C40.0887 32.9168 40.1877 32.9372 40.2877 32.9377Z" fill="black"/>
<path d="M17.7331 33.8244L31.8282 42.885C31.9539 42.9642 32.0999 43.0051 32.2484 43.0026C32.4123 43.0045 32.5724 42.9531 32.7045 42.8561C32.8367 42.7592 32.9338 42.6219 32.9812 42.465C33.0286 42.3081 33.0237 42.1401 32.9674 41.9862C32.911 41.8323 32.8062 41.7008 32.6687 41.6116L18.5526 32.5511C18.3862 32.4674 18.1949 32.4481 18.0152 32.4967C17.8354 32.5453 17.68 32.6585 17.5785 32.8147C17.477 32.9708 17.4367 33.1588 17.4652 33.3428C17.4938 33.5268 17.5891 33.6938 17.7331 33.8118V33.8244Z" fill="black"/>
<path d="M49.7222 43.6625C49.7898 43.7696 49.8835 43.8578 49.9945 43.9188C50.1055 43.9798 50.2301 44.0116 50.3568 44.0113C50.5057 44.0122 50.6517 43.9699 50.777 43.8894L64.8721 34.8289C64.9549 34.7737 65.026 34.7028 65.0814 34.6201C65.1368 34.5374 65.1753 34.4447 65.1948 34.3471C65.2143 34.2496 65.2144 34.1491 65.1951 34.0515C65.1758 33.9539 65.1375 33.8611 65.0823 33.7783C65.0271 33.6955 64.9561 33.6244 64.8734 33.569C64.7908 33.5137 64.698 33.4751 64.6005 33.4556C64.5029 33.4361 64.4025 33.436 64.3049 33.4553C64.2073 33.4746 64.1144 33.513 64.0316 33.5682L49.9534 42.6203C49.8695 42.6733 49.7969 42.7424 49.7398 42.8236C49.6828 42.9048 49.6424 42.9964 49.6209 43.0933C49.5994 43.1902 49.5973 43.2903 49.6147 43.388C49.6321 43.4857 49.6686 43.579 49.7222 43.6625Z" fill="black"/>
<path d="M21.1622 48.5583H20.9101V48.3062C20.9178 48.2024 20.9041 48.0981 20.8697 47.9999C20.8353 47.9016 20.781 47.8116 20.7102 47.7353C20.6394 47.659 20.5536 47.5981 20.4582 47.5565C20.3628 47.5149 20.2598 47.4934 20.1557 47.4934C20.0516 47.4934 19.9487 47.5149 19.8533 47.5565C19.7579 47.5981 19.6721 47.659 19.6012 47.7353C19.5304 47.8116 19.4762 47.9016 19.4418 47.9999C19.4074 48.0981 19.3936 48.2024 19.4014 48.3062V48.5583H19.1492C19.0454 48.5506 18.9411 48.5643 18.8429 48.5987C18.7447 48.6331 18.6546 48.6874 18.5783 48.7582C18.502 48.829 18.4411 48.9148 18.3995 49.0102C18.3579 49.1056 18.3364 49.2086 18.3364 49.3127C18.3364 49.4168 18.3579 49.5197 18.3995 49.6151C18.4411 49.7106 18.502 49.7963 18.5783 49.8671C18.6546 49.9379 18.7447 49.9922 18.8429 50.0266C18.9411 50.061 19.0454 50.0748 19.1492 50.067H19.4014V50.3192C19.4156 50.5095 19.5012 50.6875 19.6411 50.8173C19.781 50.9471 19.9648 51.0193 20.1557 51.0193C20.3466 51.0193 20.5304 50.9471 20.6703 50.8173C20.8102 50.6875 20.8958 50.5095 20.9101 50.3192V50.067H21.1622C21.266 50.0748 21.3703 50.061 21.4685 50.0266C21.5667 49.9922 21.6568 49.9379 21.7331 49.8671C21.8094 49.7963 21.8703 49.7106 21.9119 49.6151C21.9535 49.5197 21.975 49.4168 21.975 49.3127C21.975 49.2086 21.9535 49.1056 21.9119 49.0102C21.8703 48.9148 21.8094 48.829 21.7331 48.7582C21.6568 48.6874 21.5667 48.6331 21.4685 48.5987C21.3703 48.5643 21.266 48.5506 21.1622 48.5583Z" fill="black"/>
<path d="M53.3784 32.4335C53.279 32.4329 53.1803 32.4521 53.0883 32.4899C52.9963 32.5277 52.9127 32.5834 52.8423 32.6538C52.772 32.7242 52.7163 32.8078 52.6784 32.8998C52.6406 32.9918 52.6214 33.0904 52.622 33.1899V33.4295H52.3698C52.1692 33.4295 51.9768 33.5092 51.835 33.651C51.6931 33.7929 51.6134 33.9853 51.6134 34.1859C51.6134 34.3865 51.6931 34.5789 51.835 34.7208C51.9768 34.8627 52.1692 34.9424 52.3698 34.9424H52.622V35.1945C52.6362 35.3848 52.7219 35.5628 52.8618 35.6926C53.0017 35.8225 53.1855 35.8946 53.3763 35.8946C53.5672 35.8946 53.751 35.8225 53.8909 35.6926C54.0308 35.5628 54.1165 35.3848 54.1307 35.1945V34.9424H54.3828C54.5834 34.9424 54.7759 34.8627 54.9177 34.7208C55.0596 34.5789 55.1393 34.3865 55.1393 34.1859C55.1393 33.9853 55.0596 33.7929 54.9177 33.651C54.7759 33.5092 54.5834 33.4295 54.3828 33.4295H54.1307V33.1815C54.1296 32.9827 54.0498 32.7925 53.9089 32.6523C53.7679 32.5122 53.5772 32.4335 53.3784 32.4335Z" fill="black"/>
<path d="M32.946 31.4878C32.7624 31.5672 32.6177 31.7162 32.5437 31.9021C32.4696 32.088 32.4723 32.2956 32.551 32.4795L35.5684 39.5271C35.6268 39.6623 35.7236 39.7774 35.8469 39.8581C35.9702 39.9388 36.1144 39.9815 36.2618 39.981C36.3642 39.9822 36.4658 39.9622 36.5601 39.9221C36.6533 39.8852 36.7382 39.8301 36.8098 39.76C36.8815 39.69 36.9386 39.6064 36.9777 39.5141C37.0168 39.4218 37.0371 39.3227 37.0376 39.2225C37.0381 39.1223 37.0186 39.023 36.9804 38.9303L33.9588 31.8828C33.9196 31.7893 33.8619 31.7046 33.7893 31.6338C33.7167 31.563 33.6306 31.5075 33.5361 31.4707C33.4416 31.4338 33.3407 31.4163 33.2393 31.4193C33.1379 31.4222 33.0382 31.4455 32.946 31.4878Z" fill="black"/>
<path d="M23.1752 41.4939H14.1146C13.9243 41.5081 13.7464 41.5938 13.6165 41.7337C13.4867 41.8736 13.4146 42.0574 13.4146 42.2483C13.4146 42.4391 13.4867 42.6229 13.6165 42.7628C13.7464 42.9027 13.9243 42.9884 14.1146 43.0026H23.1752C23.279 43.0104 23.3833 42.9966 23.4815 42.9622C23.5798 42.9278 23.6698 42.8735 23.7461 42.8027C23.8224 42.7319 23.8833 42.6461 23.9249 42.5507C23.9665 42.4553 23.988 42.3524 23.988 42.2483C23.988 42.1442 23.9665 42.0412 23.9249 41.9458C23.8833 41.8504 23.8224 41.7646 23.7461 41.6938C23.6698 41.623 23.5798 41.5687 23.4815 41.5343C23.3833 41.4999 23.279 41.4862 23.1752 41.4939Z" fill="black"/>
<path d="M46.6418 32.8915L43.6245 39.939C43.5458 40.123 43.5431 40.3306 43.6172 40.5165C43.6912 40.7024 43.8359 40.8513 44.0195 40.9308C44.1145 40.9684 44.2157 40.9883 44.3179 40.9896C44.4656 40.9893 44.6099 40.9457 44.7331 40.8643C44.8563 40.7829 44.953 40.6673 45.0113 40.5316L48.0329 33.484C48.0759 33.392 48.1 33.2923 48.1036 33.1908C48.1073 33.0893 48.0905 32.9881 48.0542 32.8933C48.018 32.7984 47.963 32.7118 47.8925 32.6387C47.8221 32.5655 47.7376 32.5073 47.6442 32.4675C47.5507 32.4277 47.4502 32.4071 47.3487 32.407C47.2471 32.4069 47.1465 32.4272 47.053 32.4667C46.9595 32.5063 46.8749 32.5643 46.8042 32.6373C46.7336 32.7102 46.6783 32.7967 46.6418 32.8915Z" fill="black"/>
<path d="M66.4649 42.4983H57.4044C57.2038 42.4983 57.0114 42.578 56.8695 42.7198C56.7277 42.8617 56.6479 43.0541 56.6479 43.2547C56.6479 43.4554 56.7277 43.6478 56.8695 43.7896C57.0114 43.9315 57.2038 44.0112 57.4044 44.0112H66.4649C66.6656 44.0112 66.858 43.9315 66.9998 43.7896C67.1417 43.6478 67.2214 43.4554 67.2214 43.2547C67.2214 43.0541 67.1417 42.8617 66.9998 42.7198C66.858 42.578 66.6656 42.4983 66.4649 42.4983Z" fill="black"/>
<path d="M20.6285 30.702C20.6937 30.7874 20.7763 30.8579 20.8709 30.9088C20.9655 30.9598 21.0699 30.99 21.1771 30.9975C21.2842 31.0049 21.3918 30.9895 21.4925 30.9521C21.5932 30.9148 21.6849 30.8564 21.7613 30.7809C21.8377 30.7054 21.8972 30.6144 21.9357 30.5142C21.9742 30.4139 21.991 30.3065 21.9848 30.1993C21.9786 30.092 21.9496 29.9873 21.8998 29.8921C21.85 29.7969 21.7805 29.7134 21.6959 29.6472L20.6915 28.6386C20.5471 28.5122 20.36 28.4454 20.1682 28.4517C19.9763 28.4581 19.7941 28.5371 19.6583 28.6729C19.5226 28.8086 19.4435 28.9908 19.4372 29.1827C19.4308 29.3745 19.4976 29.5616 19.6241 29.706L20.6285 30.702Z" fill="black"/>
<path d="M40.2878 45.0157C40.4873 45.0157 40.6786 44.9364 40.8197 44.7954C40.9608 44.6543 41.04 44.463 41.04 44.2635V44.0113H41.2921C41.3915 44.0113 41.4899 43.9917 41.5816 43.9537C41.6734 43.9157 41.7568 43.86 41.827 43.7897C41.8973 43.7195 41.953 43.6361 41.991 43.5443C42.029 43.4526 42.0486 43.3542 42.0486 43.2549C42.0486 43.1555 42.029 43.0572 41.991 42.9654C41.953 42.8736 41.8973 42.7902 41.827 42.72C41.7568 42.6497 41.6734 42.594 41.5816 42.556C41.4899 42.518 41.3915 42.4984 41.2921 42.4984H41.04V42.2547C41.0258 42.0643 40.9401 41.8864 40.8002 41.7566C40.6603 41.6267 40.4765 41.5546 40.2856 41.5546C40.0948 41.5546 39.911 41.6267 39.7711 41.7566C39.6312 41.8864 39.5455 42.0643 39.5313 42.2547V42.5068H39.2791C39.0785 42.5068 38.8861 42.5865 38.7443 42.7284C38.6024 42.8702 38.5227 43.0626 38.5227 43.2633C38.5227 43.4639 38.6024 43.6563 38.7443 43.7982C38.8861 43.94 39.0785 44.0197 39.2791 44.0197H39.5313V44.2719C39.5335 44.4706 39.6143 44.6605 39.7561 44.7998C39.8978 44.9392 40.089 45.0168 40.2878 45.0157Z" fill="black"/>
<path d="M59.9512 47.7557C59.8067 47.6292 59.6196 47.5624 59.4278 47.5688C59.2359 47.5751 59.0537 47.6542 58.918 47.7899C58.7822 47.9256 58.7032 48.1079 58.6968 48.2998C58.6905 48.4916 58.7573 48.6787 58.8837 48.8231L59.8881 49.8275C59.9581 49.8979 60.0412 49.9538 60.1328 49.9919C60.2244 50.03 60.3226 50.0496 60.4218 50.0496C60.521 50.0496 60.6193 50.03 60.7109 49.9919C60.8025 49.9538 60.8856 49.8979 60.9556 49.8275C61.0265 49.7579 61.0828 49.6748 61.1212 49.5832C61.1597 49.4915 61.1795 49.3932 61.1795 49.2938C61.1795 49.1944 61.1597 49.096 61.1212 49.0044C61.0828 48.9128 61.0265 48.8297 60.9556 48.7601L59.9512 47.7557Z" fill="black"/>
<path d="M59.888 31.7063C59.9579 31.7767 60.0411 31.8326 60.1327 31.8707C60.2243 31.9088 60.3225 31.9285 60.4217 31.9285C60.5209 31.9285 60.6192 31.9088 60.7108 31.8707C60.8024 31.8326 60.8855 31.7767 60.9554 31.7063L61.964 30.702C62.1001 30.5574 62.1739 30.3653 62.1695 30.1668C62.1651 29.9684 62.083 29.7797 61.9407 29.6413C61.7985 29.5029 61.6075 29.4259 61.4091 29.427C61.2106 29.4281 61.0205 29.5072 60.8798 29.6471L59.8712 30.6515C59.7361 30.7949 59.6622 30.9854 59.6654 31.1823C59.6685 31.3793 59.7484 31.5673 59.888 31.7063Z" fill="black"/>
<path d="M30.0715 20.3513H24.188C23.9878 20.3524 23.796 20.4324 23.6544 20.574C23.5128 20.7157 23.4327 20.9074 23.4316 21.1077V27.1467C23.4327 27.347 23.5128 27.5387 23.6544 27.6803C23.796 27.822 23.9878 27.902 24.188 27.9031H56.4C56.6003 27.902 56.7921 27.822 56.9337 27.6803C57.0753 27.5387 57.1554 27.347 57.1565 27.1467V21.1077C57.1554 20.9074 57.0753 20.7157 56.9337 20.574C56.7921 20.4324 56.6003 20.3524 56.4 20.3513H50.5166C59.1232 18.5106 60.1823 12.0598 60.1823 9.02559C60.1812 8.8257 60.101 8.63437 59.9592 8.49342C59.8175 8.35246 59.6257 8.27334 59.4258 8.27335C56.9253 8.27335 55.8705 7.43285 54.925 6.47889C54.8172 6.37084 54.6796 6.2975 54.5298 6.26829C54.38 6.23908 54.2249 6.25535 54.0845 6.31499C53.9473 6.37288 53.8303 6.46996 53.7481 6.59405C53.6658 6.71814 53.622 6.86374 53.6222 7.0126C53.6221 8.16181 53.4651 9.30563 53.1557 10.4124C52.1429 9.07602 50.8191 8.27335 49.3399 8.27335C45.2635 8.27335 41.7754 11.2865 40.2835 15.5604C38.8001 11.2865 35.2994 8.27335 31.223 8.27335C29.7479 8.27335 28.4199 9.07602 27.4071 10.4124C27.0994 9.30538 26.9439 8.1616 26.9449 7.0126C26.9444 6.86333 26.8998 6.71754 26.8166 6.59357C26.7335 6.4696 26.6155 6.37301 26.4776 6.31595C26.3396 6.25889 26.1879 6.24391 26.0415 6.27291C25.8951 6.3019 25.7605 6.37357 25.6547 6.47889C24.7091 7.42445 23.6543 8.27335 21.1538 8.27335C20.9543 8.27335 20.763 8.3526 20.6219 8.49367C20.4809 8.63475 20.4016 8.82608 20.4016 9.02559C20.41 12.0598 21.4648 18.5106 30.0715 20.3513ZM42.5571 21.8642V26.3944H38.0268V21.8642H42.5571ZM46.3393 19.0695C47.6711 18.2784 48.8175 17.2108 49.7013 15.9387C50.9483 16.1512 52.1452 16.5929 53.2314 17.2414C52.2816 17.9979 50.0165 18.7207 46.3519 19.0695H46.3393ZM41.1702 19.3006C41.8048 17.4305 44.5869 15.9597 47.8942 15.8378C46.1557 17.7738 43.7681 19.0058 41.1829 19.3006H41.1702ZM32.6728 15.8378C35.9676 15.9597 38.7496 17.4305 39.3968 19.3006C36.8115 19.0058 34.4239 17.7738 32.6854 15.8378H32.6728ZM30.8532 15.9387C31.7369 17.2108 32.8834 18.2784 34.2151 19.0695C30.5506 18.6997 28.2855 17.9979 27.3231 17.2414C28.4134 16.5921 29.6146 16.1504 30.8658 15.9387H30.8532ZM24.9235 21.8642H36.5055V26.3944H24.9361L24.9235 21.8642ZM55.631 26.3944H44.07V21.8642H55.6478L55.631 26.3944ZM55.0384 8.58013C56.1019 9.30188 57.3471 9.70966 58.6316 9.75682C58.4635 12.77 57.2573 15.1192 55.1141 16.7371C55.0968 15.1483 54.7699 13.5781 54.1517 12.1144C54.6203 10.9858 54.9232 9.79542 55.051 8.58013H55.0384ZM49.3357 9.78204C51.3781 9.78204 53.1179 12.3666 53.5382 15.6655C51.9429 14.7886 50.1557 14.3194 48.3355 14.2997C45.6123 14.2997 43.2169 15.073 41.6115 16.3085C42.8386 12.4968 45.8434 9.78204 49.3483 9.78204H49.3357ZM31.2188 9.78204C34.7236 9.78204 37.7284 12.4968 38.9429 16.3211C37.3418 15.0856 34.9464 14.3123 32.219 14.3123C30.3987 14.332 28.6115 14.8012 27.0163 15.6781C27.4324 12.3666 29.1932 9.78204 31.2314 9.78204H31.2188ZM25.516 8.58013C25.6436 9.80134 25.948 10.9975 26.4196 12.1312C25.8014 13.5949 25.4745 15.1651 25.4572 16.7539C23.3139 15.136 22.0952 12.7868 21.9439 9.77363C23.2272 9.72016 24.4694 9.30655 25.5286 8.58013H25.516Z" fill="black"/>
</svg>
